<svg xmlns="http://www.w3.org/2000/svg" width="1600" height="1000" viewBox="0 0 1600 1000">
  <defs>
    <linearGradient id="bg" x1="0" y1="0" x2="1" y2="1">
      <stop offset="0" stop-color="#f7f4ec"/>
      <stop offset="1" stop-color="#e7f1ec"/>
    </linearGradient>
    <filter id="shadow" x="-20%" y="-20%" width="140%" height="140%">
      <feDropShadow dx="0" dy="22" stdDeviation="24" flood-color="#143b2d" flood-opacity="0.14"/>
    </filter>
  </defs>
  <rect width="1600" height="1000" fill="url(#bg)"/>
  <rect x="0" y="0" width="1600" height="170" fill="#176a45"/>
  <circle cx="1350" cy="210" r="240" fill="#d8ebe1"/>
  <circle cx="1450" cy="90" r="130" fill="#c8e2d5" opacity="0.8"/>
  <g filter="url(#shadow)">
    <rect x="120" y="155" width="1360" height="690" rx="34" fill="#ffffff"/>
  </g>
  <foreignObject x="180" y="205" width="1240" height="160">
    <div xmlns="http://www.w3.org/1999/xhtml" dir="rtl" style="font-family:Tajawal,Arial,sans-serif;color:#123f2e;text-align:right">
      <div style="font-size:34px;font-weight:700;color:#5f7d6c;margin-bottom:10px">تصور لحملة توعوية صحية متعددة المخرجات</div>
      <div style="font-size:84px;line-height:1.1;font-weight:900">حج صحي</div>
      <div style="font-size:32px;font-weight:700;color:#176a45;margin-top:14px">صحتك أمانة.. تتم نسكك بسلامة</div>
    </div>
  </foreignObject>
  <g transform="translate(180 430)">
    <rect width="360" height="250" rx="26" fill="#eef6f2" stroke="#b9d9c8" stroke-width="2"/>
    <circle cx="300" cy="65" r="34" fill="#176a45"/>
    <path d="M300 45c-13 21-20 32-20 45a20 20 0 0040 0c0-13-7-24-20-45z" fill="#fff"/>
    <foreignObject x="35" y="110" width="290" height="110"><div xmlns="http://www.w3.org/1999/xhtml" dir="rtl" style="font-family:Tajawal,Arial,sans-serif;text-align:right;color:#173b2d"><div style="font-size:26px;font-weight:800">الترطيب المستمر</div><div style="font-size:20px;line-height:1.7;color:#5f6f67;margin-top:8px">رسائل عملية تساعد الحاج على الوقاية من الجفاف أثناء المناسك.</div></div></foreignObject>
  </g>
  <g transform="translate(620 430)">
    <rect width="360" height="250" rx="26" fill="#eef6f2" stroke="#b9d9c8" stroke-width="2"/>
    <circle cx="300" cy="65" r="34" fill="#176a45"/>
    <path d="M283 73h34M300 56v34M286 51a20 20 0 0128 0M286 95a20 20 0 0028 0" stroke="#fff" stroke-width="7" stroke-linecap="round" fill="none"/>
    <foreignObject x="35" y="110" width="290" height="110"><div xmlns="http://www.w3.org/1999/xhtml" dir="rtl" style="font-family:Tajawal,Arial,sans-serif;text-align:right;color:#173b2d"><div style="font-size:26px;font-weight:800">الوقاية من الإجهاد الحراري</div><div style="font-size:20px;line-height:1.7;color:#5f6f67;margin-top:8px">توجيهات مختصرة حول الظل والراحة ومتابعة العلامات المبكرة.</div></div></foreignObject>
  </g>
  <g transform="translate(1060 430)">
    <rect width="360" height="250" rx="26" fill="#eef6f2" stroke="#b9d9c8" stroke-width="2"/>
    <circle cx="300" cy="65" r="34" fill="#176a45"/>
    <path d="M284 67l11 11 23-27" stroke="#fff" stroke-width="7" stroke-linecap="round" stroke-linejoin="round" fill="none"/>
    <foreignObject x="35" y="110" width="290" height="110"><div xmlns="http://www.w3.org/1999/xhtml" dir="rtl" style="font-family:Tajawal,Arial,sans-serif;text-align:right;color:#173b2d"><div style="font-size:26px;font-weight:800">الاستعداد الصحي</div><div style="font-size:20px;line-height:1.7;color:#5f6f67;margin-top:8px">تذكير بالأدوية والفحوصات وخطة التعامل مع الأمراض المزمنة.</div></div></foreignObject>
  </g>
  <foreignObject x="180" y="745" width="1240" height="70"><div xmlns="http://www.w3.org/1999/xhtml" dir="rtl" style="font-family:Tajawal,Arial,sans-serif;text-align:right;color:#176a45;font-size:24px;font-weight:800">#حج_صحي_1447</div></foreignObject>
</svg>